HIERARCHY
ROOT Hips
{
    OFFSET   0.000000   0.000000   0.000000
    CHANNELS 6 Xposition Yposition Zposition Zrotation Xrotation Yrotation
    JOINT Chest
    {
        OFFSET   0.000000   8.007230   0.000000
        CHANNELS 3 Zrotation Xrotation Yrotation
        JOINT Chest2
        {
            OFFSET   0.000000  22.077100   0.000000
            CHANNELS 3 Zrotation Xrotation Yrotation
            JOINT Neck
            {
                OFFSET   0.000000  23.254800   0.000000
                CHANNELS 3 Zrotation Xrotation Yrotation
                JOINT Head
                {
                    OFFSET   0.000010  14.370000   1.956600
                    CHANNELS 3 Zrotation Xrotation Yrotation
                    End Site
                    {
                        OFFSET   0.000000  19.566000   0.000000
                    }
                }
            }
            JOINT LeftCollar
            {
                OFFSET   3.911900  19.017000  -0.467062
                CHANNELS 3 Zrotation Xrotation Yrotation
                JOINT LeftShoulder
                {
                    OFFSET  10.383700   0.000000   0.000000
                    CHANNELS 3 Zrotation Xrotation Yrotation
                    JOINT LeftElbow
                    {
                        OFFSET  26.662100   0.001193   0.000835
                        CHANNELS 3 Zrotation Xrotation Yrotation
                        JOINT LeftWrist
                        {
                            OFFSET  28.869000  -0.000058  -0.000075
                            CHANNELS 3 Zrotation Xrotation Yrotation
                            JOINT LeftFinger0
                            {
                                OFFSET   2.044660  -2.323460   3.252850
                                CHANNELS 3 Zrotation Xrotation Yrotation
                                JOINT LeftFinger01
                                {
                                    OFFSET   3.088130   0.000000   0.000000
                                    CHANNELS 3 Zrotation Xrotation Yrotation
                                    JOINT LeftFinger02
                                    {
                                        OFFSET   2.639450   0.000000   0.000000
                                        CHANNELS 3 Zrotation Xrotation Yrotation
                                        End Site
                                        {
                                            OFFSET   2.582190   0.000000   0.000000
                                        }
                                    }
                                }
                            }
                            JOINT LeftFinger1
                            {
                                OFFSET   8.364480   0.000000   3.252850
                                CHANNELS 3 Zrotation Xrotation Yrotation
                                JOINT LeftFinger11
                                {
                                    OFFSET   4.646920   0.000000   0.000000
                                    CHANNELS 3 Zrotation Xrotation Yrotation
                                    JOINT LeftFinger12
                                    {
                                        OFFSET   2.323460   0.000000   0.000000
                                        CHANNELS 3 Zrotation Xrotation Yrotation
                                        End Site
                                        {
                                            OFFSET   2.273050   0.000000   0.000000
                                        }
                                    }
                                }
                            }
                            JOINT LeftFinger2
                            {
                                OFFSET   8.364490   0.000016   1.078090
                                CHANNELS 3 Zrotation Xrotation Yrotation
                                JOINT LeftFinger21
                                {
                                    OFFSET   5.111620   0.000000   0.000000
                                    CHANNELS 3 Zrotation Xrotation Yrotation
                                    JOINT LeftFinger22
                                    {
                                        OFFSET   2.788150   0.000012   0.000000
                                        CHANNELS 3 Zrotation Xrotation Yrotation
                                        End Site
                                        {
                                            OFFSET   2.727660   0.000000   0.000000
                                        }
                                    }
                                }
                            }
                            JOINT LeftFinger3
                            {
                                OFFSET   7.899780   0.000014  -1.078090
                                CHANNELS 3 Zrotation Xrotation Yrotation
                                JOINT LeftFinger31
                                {
                                    OFFSET   4.646930   0.000000   0.000000
                                    CHANNELS 3 Zrotation Xrotation Yrotation
                                    JOINT LeftFinger32
                                    {
                                        OFFSET   2.323470   0.000000   0.000000
                                        CHANNELS 3 Zrotation Xrotation Yrotation
                                        End Site
                                        {
                                            OFFSET   2.273050   0.000000   0.000000
                                        }
                                    }
                                }
                            }
                            JOINT LeftFinger4
                            {
                                OFFSET   7.435090   0.000000  -3.252850
                                CHANNELS 3 Zrotation Xrotation Yrotation
                                JOINT LeftFinger41
                                {
                                    OFFSET   3.717550   0.000000   0.000000
                                    CHANNELS 3 Zrotation Xrotation Yrotation
                                    JOINT LeftFinger42
                                    {
                                        OFFSET   1.858770   0.000000   0.000000
                                        CHANNELS 3 Zrotation Xrotation Yrotation
                                        End Site
                                        {
                                            OFFSET   1.818440   0.000000   0.000000
                                        }
                                    }
                                }
                            }
                        }
                    }
                }
            }
            JOINT RightCollar
            {
                OFFSET  -3.911900  19.017000  -0.467063
                CHANNELS 3 Zrotation Xrotation Yrotation
                JOINT RightShoulder
                {
                    OFFSET -10.383700   0.000023   0.000000
                    CHANNELS 3 Zrotation Xrotation Yrotation
                    JOINT RightElbow
                    {
                        OFFSET -26.662100   0.001246   0.001011
                        CHANNELS 3 Zrotation Xrotation Yrotation
                        JOINT RightWrist
                        {
                            OFFSET -28.869000  -0.000026  -0.000078
                            CHANNELS 3 Zrotation Xrotation Yrotation
                            JOINT RightFinger0
                            {
                                OFFSET  -2.044660  -2.323490   3.252850
                                CHANNELS 3 Zrotation Xrotation Yrotation
                                JOINT RightFinger01
                                {
                                    OFFSET  -3.088130   0.000000   0.000000
                                    CHANNELS 3 Zrotation Xrotation Yrotation
                                    JOINT RightFinger02
                                    {
                                        OFFSET  -2.639460   0.000000   0.000000
                                        CHANNELS 3 Zrotation Xrotation Yrotation
                                        End Site
                                        {
                                            OFFSET  -2.582190   0.000000   0.000000
                                        }
                                    }
                                }
                            }
                            JOINT RightFinger1
                            {
                                OFFSET  -8.364480   0.000000   3.252850
                                CHANNELS 3 Zrotation Xrotation Yrotation
                                JOINT RightFinger11
                                {
                                    OFFSET  -4.646920   0.000000   0.000000
                                    CHANNELS 3 Zrotation Xrotation Yrotation
                                    JOINT RightFinger12
                                    {
                                        OFFSET  -2.323470   0.000000   0.000000
                                        CHANNELS 3 Zrotation Xrotation Yrotation
                                        End Site
                                        {
                                            OFFSET  -2.273050   0.000000   0.000000
                                        }
                                    }
                                }
                            }
                            JOINT RightFinger2
                            {
                                OFFSET  -8.364480   0.000000   1.078090
                                CHANNELS 3 Zrotation Xrotation Yrotation
                                JOINT RightFinger21
                                {
                                    OFFSET  -5.111620   0.000000   0.000000
                                    CHANNELS 3 Zrotation Xrotation Yrotation
                                    JOINT RightFinger22
                                    {
                                        OFFSET  -2.788160   0.000000   0.000000
                                        CHANNELS 3 Zrotation Xrotation Yrotation
                                        End Site
                                        {
                                            OFFSET  -2.727660   0.000000   0.000000
                                        }
                                    }
                                }
                            }
                            JOINT RightFinger3
                            {
                                OFFSET  -7.899780   0.000000  -1.078090
                                CHANNELS 3 Zrotation Xrotation Yrotation
                                JOINT RightFinger31
                                {
                                    OFFSET  -4.646930   0.000000   0.000000
                                    CHANNELS 3 Zrotation Xrotation Yrotation
                                    JOINT RightFinger32
                                    {
                                        OFFSET  -2.323470   0.000000   0.000000
                                        CHANNELS 3 Zrotation Xrotation Yrotation
                                        End Site
                                        {
                                            OFFSET  -2.273050   0.000000   0.000000
                                        }
                                    }
                                }
                            }
                            JOINT RightFinger4
                            {
                                OFFSET  -7.435090   0.000000  -3.252850
                                CHANNELS 3 Zrotation Xrotation Yrotation
                                JOINT RightFinger41
                                {
                                    OFFSET  -3.717550   0.000000   0.000000
                                    CHANNELS 3 Zrotation Xrotation Yrotation
                                    JOINT RightFinger42
                                    {
                                        OFFSET  -1.858760   0.000000   0.000000
                                        CHANNELS 3 Zrotation Xrotation Yrotation
                                        End Site
                                        {
                                            OFFSET  -1.818440   0.000000   0.000000
                                        }
                                    }
                                }
                            }
                        }
                    }
                }
            }
        }
    }
    JOINT LeftHip
    {
        OFFSET   9.783010   0.000000   0.000000
        CHANNELS 3 Zrotation Xrotation Yrotation
        JOINT LeftKnee
        {
            OFFSET   0.000073 -41.789100   0.001749
            CHANNELS 3 Zrotation Xrotation Yrotation
            JOINT LeftAnkle
            {
                OFFSET   0.000111 -41.133200  -0.000179
                CHANNELS 3 Zrotation Xrotation Yrotation
                JOINT LeftToe
                {
                    OFFSET   0.000000  -6.358960  14.674500
                    CHANNELS 3 Zrotation Xrotation Yrotation
                    End Site
                    {
                        OFFSET   0.000000   0.000000   3.913200
                    }
                }
            }
        }
    }
    JOINT RightHip
    {
        OFFSET  -9.783010   0.000000   0.000000
        CHANNELS 3 Zrotation Xrotation Yrotation
        JOINT RightKnee
        {
            OFFSET   0.000424 -41.789200   0.005205
            CHANNELS 3 Zrotation Xrotation Yrotation
            JOINT RightAnkle
            {
                OFFSET   0.000000 -41.133200  -0.000155
                CHANNELS 3 Zrotation Xrotation Yrotation
                JOINT RightToe
                {
                    OFFSET   0.000000  -6.358960  14.674500
                    CHANNELS 3 Zrotation Xrotation Yrotation
                    End Site
                    {
                        OFFSET   0.000000   0.000000   3.913200
                    }
                }
            }
        }
    }
}
MOTION
Frames: 5
Frame Time:   0.016667
 -0.192181  89.499700  -1.895770  -3.988730  -7.268510  -7.348650   0.873259   4.538920   0.794935   1.691050   9.089130   1.527370   0.947087  -0.019418  -0.011437   1.555920  -0.039804   0.880398  -3.734260  -2.837730   2.156870 -75.277800  18.905900  -1.300260  -0.769925  -4.499540 -16.258500  15.997800 -13.844900   8.579070  47.178900  44.669800 -81.838800 -30.729900   0.001667   0.014360 -10.365000   0.000835   0.006176 -37.572400   5.300090  -6.860010 -31.001400  -0.000926  -0.001283 -21.700900   0.004453  -0.008669 -31.298900  -2.346530   3.852560 -47.065900  -0.003214  -0.006570 -31.345800   0.000111  -0.014567 -31.335100  -2.348930   3.851100 -47.121200   0.000933  -0.013097 -31.381100   0.001283   0.000424 -40.682000  -2.943380   3.418610 -61.154800   0.002667  -0.001007 -40.723000   0.008988  -0.005947   8.565260   0.187741   5.258860  70.533300  12.210100  -5.650070  -1.136530  -8.811960  16.222800 -17.321100  -8.247300  -1.637060 -34.548200  30.143800  59.882800  37.572200   0.011001  -0.012630  14.024400  -0.004586  -0.000330  34.297600  -1.480400  -2.168560  28.084500   0.010342  -0.002864  19.659100   0.000552  -0.002272  32.805600  -3.674200  -5.666780  49.481200  -0.001070  -0.003687  32.954500  -0.001005  -0.002265  32.208700  -3.610910  -5.704860  48.582600   0.001873  -0.003601  32.356000  -0.005719  -0.002140  39.171700  -4.292100  -5.220710  59.051600  -0.000389  -0.002344  39.328400  -0.001766  -0.001662   1.775800  10.217100   3.998730   1.185010   0.268516   6.319190  -0.748738  -4.110950   4.351490  -0.000000   0.000000   0.000000   5.110180   5.602580  -3.757530  -3.181130   6.693350  -5.636180   0.858548  -5.644580   3.315880   0.000000   0.000000  -0.000000
 -0.208145  89.499700  -1.878400  -3.986540  -7.274940  -7.325270   0.871325   4.550990   0.803629   1.686340   9.113330   1.544850   0.971335  -0.014749  -0.011427   1.595770  -0.030223   0.844946  -3.724080  -2.837740   2.156210 -75.261600  18.949900  -1.327560  -0.769682  -4.523930 -16.267600  16.000100 -13.846300   8.587380  47.184300  44.669800 -81.838800 -30.729900   0.001659   0.014372 -10.365000   0.000835   0.006177 -37.575100   5.300150  -6.854500 -31.003200  -0.000927  -0.001281 -21.702200   0.004453  -0.008670 -31.299900  -2.350630   3.859140 -47.068200  -0.003216  -0.006563 -31.347400   0.000107  -0.014567 -31.337100  -2.353110   3.857630 -47.124700   0.000932  -0.013094 -31.384100   0.001278   0.000433 -40.683500  -2.948540   3.424400 -61.157600   0.002663  -0.000998 -40.727500   0.008983  -0.005946   8.582670   0.153224   5.272050  70.547700  12.230500  -5.681850  -1.162860  -8.800870  16.234600 -17.307800  -8.245440  -1.624030 -34.551900  30.163800  59.920800  37.573200   0.010992  -0.012624  14.024700  -0.004591  -0.000333  34.308000  -1.480780  -2.168880  28.093100   0.010339  -0.002830  19.665100   0.000553  -0.002247  32.812200  -3.674570  -5.666270  49.491200  -0.001072  -0.003656  32.961200  -0.000961  -0.002246  32.215400  -3.610860  -5.704320  48.592700   0.001867  -0.003577  32.362800  -0.005716  -0.002139  39.188400  -4.292430  -5.220290  59.076800  -0.000368  -0.002331  39.345200  -0.001727  -0.001634   1.786320  10.228900   3.992490   1.184420   0.274763   6.310290  -0.755831  -4.124670   4.341450   0.000000   0.000000   0.000000   5.120760   5.633540  -3.775970  -3.175960   6.673720  -5.639870   0.849765  -5.652820   3.308590  -0.000000   0.000000  -0.000000
 -0.235513  89.499700  -1.848330  -3.983570  -7.289660  -7.287660   0.867961   4.572490   0.818152   1.678170   9.156450   1.574040   1.012470  -0.004531  -0.011394   1.663370  -0.009408   0.777853  -3.708790  -2.837810   2.151550 -75.241200  19.020900  -1.357800  -0.772884  -4.563190 -16.280600  16.003800 -13.850500   8.600370  47.189800  44.669800 -81.838800 -30.729900   0.001651   0.014389 -10.365000   0.000838   0.006182 -37.583700   5.300270  -6.844030 -31.009700  -0.000927  -0.001278 -21.706800   0.004453  -0.008670 -31.304000  -2.358350   3.871200 -47.075600  -0.003217  -0.006544 -31.352300   0.000089  -0.014567 -31.342700  -2.360970   3.869600 -47.133800   0.000928  -0.013085 -31.391100   0.001263   0.000458 -40.689500  -2.958270   3.434930 -61.167400   0.002654  -0.000977 -40.737400   0.008970  -0.005941   8.611990   0.073797   5.285220  70.567000  12.298100  -5.714660  -1.198070  -8.759610  16.245000 -17.279200  -8.236330  -1.610970 -34.546900  30.187000  59.994100  37.579900   0.010979  -0.012604  14.026500  -0.004600  -0.000337  34.327600  -1.483480  -2.171140  28.109200   0.010330  -0.002756  19.676400   0.000553  -0.002192  32.818800  -3.675080  -5.665770  49.501300  -0.001080  -0.003586  32.967900  -0.000865  -0.002206  32.222100  -3.610810  -5.703790  48.602800   0.001853  -0.003526  32.369500  -0.005710  -0.002136  39.213200  -4.292880  -5.219880  59.114200  -0.000324  -0.002301  39.370000  -0.001641  -0.001571   1.805250  10.255100   3.980280   1.183850   0.281012   6.297800  -0.767956  -4.146350   4.325490  -0.000000   0.000000  -0.000000   5.140850   5.693120  -3.807850  -3.168580   6.636270  -5.646290   0.834640  -5.665280   3.301330   0.000000   0.000000   0.000000
 -0.258763  89.499800  -1.822180  -3.985490  -7.308310  -7.258290   0.864876   4.592250   0.829806   1.670810   9.196090   1.597480   1.046710   0.007862  -0.011328   1.719600   0.015561   0.707353  -3.702000  -2.850060   2.133070 -75.236200  19.071900  -1.361360  -0.779900  -4.590590 -16.286100  16.005000 -13.860200   8.610720  47.183800  44.676600 -81.847600 -30.742600   0.001655   0.014393 -10.371400   0.000852   0.006195 -37.602300   5.295880  -6.832110 -31.024300  -0.000939  -0.001278 -21.716900   0.004456  -0.008668 -31.315300  -2.367030   3.883880 -47.093300  -0.003215  -0.006513 -31.364100   0.000047  -0.014568 -31.355300  -2.369740   3.882230 -47.153300   0.000921  -0.013073 -31.404200   0.001241   0.000500 -40.706100  -2.969330   3.445750 -61.193100   0.002639  -0.000946 -40.754900   0.008945  -0.005934   8.639460  -0.042635   5.279680  70.577100  12.411800  -5.715530  -1.228360  -8.666540  16.218600 -17.243000  -8.226810  -1.616350 -34.508000  30.180100  60.096800  37.589700   0.010972  -0.012570  14.030800  -0.004610  -0.000312  34.348100  -1.487280  -2.175500  28.126200   0.010317  -0.002653  19.688300   0.000552  -0.002115  32.815400  -3.675280  -5.668480  49.496400  -0.001092  -0.003488  32.964600  -0.000729  -0.002149  32.217200  -3.610850  -5.706650  48.595700   0.001832  -0.003453  32.364800  -0.005699  -0.002132  39.228700  -4.293060  -5.221900  59.137300  -0.000263  -0.002258  39.385400  -0.001520  -0.001480   1.822940  10.287200   3.966470   1.182340   0.280205   6.292320  -0.778483  -4.161410   4.313650   0.000000   0.000000   0.000000   5.161830   5.755650  -3.834160  -3.165280   6.596830  -5.653590   0.820580  -5.672490   3.301600   0.000000   0.000000  -0.000000
 -0.283413  89.499900  -1.794140  -3.992820  -7.334830  -7.234720   0.861840   4.614380   0.841560   1.663500   9.240480   1.621080   1.082230   0.024972  -0.011243   1.777920   0.050078   0.627279  -3.693420  -2.864560   2.103690 -75.232500  19.121000  -1.362220  -0.788137  -4.618580 -16.289400  15.996100 -13.867200   8.616400  47.181700  44.693200 -81.868400 -30.762900   0.001662   0.014398 -10.381500   0.000871   0.006212 -37.621100   5.288750  -6.820220 -31.038900  -0.000957  -0.001278 -21.727200   0.004458  -0.008665 -31.323200  -2.375540   3.896380 -47.106000  -0.003213  -0.006473 -31.372600   0.000000  -0.014568 -31.363800  -2.378300   3.894690 -47.167000   0.000913  -0.013056 -31.413200   0.001212   0.000556 -40.717800  -2.979880   3.456490 -61.211600   0.002619  -0.000906 -40.766900   0.008913  -0.005923   8.660250  -0.171579   5.250950  70.591400  12.586300  -5.708000  -1.259880  -8.573060  16.155500 -17.201400  -8.189220  -1.654130 -34.477800  30.169800  60.164200  37.628800   0.010964  -0.012524  14.054600  -0.004624  -0.000274  34.370700  -1.504660  -2.198330  28.144900   0.010301  -0.002543  19.701400   0.000551  -0.002033  32.792500  -3.675310  -5.675860  49.462300  -0.001107  -0.003384  32.941900  -0.000585  -0.002089  32.184000  -3.610850  -5.714540  48.546300   0.001804  -0.003376  32.331900  -0.005687  -0.002128  39.235800  -4.293080  -5.228280  59.148400  -0.000198  -0.002215  39.392800  -0.001392  -0.001383   1.843010  10.332900   3.950960   1.178850   0.274534   6.290430  -0.788950  -4.174570   4.304060  -0.000000   0.000000  -0.000000   5.186290   5.831590  -3.865150  -3.163430   6.550850  -5.657900   0.806563  -5.678400   3.303230   0.000000   0.000000   0.000000
